<svg id="Plus" xmlns="http://www.w3.org/2000/svg" width="64" height="63.999" viewBox="0 0 64 63.999">
  <path id="kreis" d="M219.621,2787.372a32,32,0,1,1-45.254,0A32,32,0,0,1,219.621,2787.372Z" transform="translate(-164.994 -2778)" fill="#293d4f"/>
  <path id="plus-2" data-name="plus" d="M149.853,293.773v-6.745h-6.745a2.957,2.957,0,1,1,0-5.914h6.745v-6.745a2.956,2.956,0,0,1,2.956-2.957h0a2.956,2.956,0,0,1,2.956,2.956v6.745h6.745a2.957,2.957,0,0,1,0,5.914h-6.745v6.744a2.957,2.957,0,1,1-5.913,0Z" transform="translate(-121.151 -252.412)" fill="#fff"/>
</svg>
