<svg id="pfeil_nach_rechts" data-name="pfeil nach rechts" xmlns="http://www.w3.org/2000/svg" width="64" height="63.999" viewBox="0 0 64 63.999">
  <path id="kreis" d="M219.621,2787.372a32,32,0,1,1-45.254,0A32,32,0,0,1,219.621,2787.372Z" transform="translate(-164.994 -2778)" fill="#293d4f"/>
  <rect id="Rectangle_2" data-name="Rectangle 2" width="34" height="34" transform="translate(15 49) rotate(-90)" fill="#f0f" opacity="0"/>
  <path id="Path_56" data-name="Path 56" d="M-403.426,630.38a3.072,3.072,0,0,0-4.343.109l-8.724,9.173-8.724-9.173a3.072,3.072,0,0,0-4.343-.109,3.072,3.072,0,0,0-.109,4.343l10.947,11.51a3.061,3.061,0,0,0,.587.478l.008,0c.08.05.161.1.244.139l.024.012c.079.039.158.075.239.107l.043.016c.076.028.152.055.229.078l.066.016c.071.019.143.037.215.051.032.006.065.009.1.015.063.01.125.021.188.026s.137.008.205.01c.027,0,.054,0,.081,0h.005c.027,0,.054,0,.081,0,.068,0,.137,0,.205-.01s.126-.017.189-.027c.032,0,.065-.008.1-.014.072-.014.144-.032.215-.051l.065-.016c.078-.022.154-.049.229-.078l.043-.016c.081-.032.161-.068.239-.107l.023-.011c.083-.042.165-.089.245-.139l.007,0a3.063,3.063,0,0,0,.588-.478l10.947-11.51A3.072,3.072,0,0,0-403.426,630.38Z" transform="translate(-604.534 -384.516) rotate(-90)" fill="#fff"/>
</svg>
