<svg id="X-gross-hellgrau" xmlns="http://www.w3.org/2000/svg" width="64" height="63.999" viewBox="0 0 64 63.999">
  <path id="kreis" d="M219.621,2787.372a32,32,0,1,1-45.254,0A32,32,0,0,1,219.621,2787.372Z" transform="translate(-164.994 -2778)" fill="#949ea7"/>
  <path id="x" d="M-177.694-2.711l-5.249-5.25-5.249,5.25a2.811,2.811,0,0,1-1.992.824,2.811,2.811,0,0,1-1.991-.824,2.817,2.817,0,0,1,0-3.983l5.249-5.249-5.249-5.249a2.816,2.816,0,0,1,0-3.983,2.816,2.816,0,0,1,3.982,0l5.249,5.249,5.249-5.249a2.816,2.816,0,0,1,3.982,0,2.816,2.816,0,0,1,0,3.983l-5.249,5.249,5.249,5.249a2.817,2.817,0,0,1,0,3.983,2.808,2.808,0,0,1-1.991.824A2.807,2.807,0,0,1-177.694-2.711Z" transform="translate(214.943 43.943)" fill="#fff"/>
</svg>
