<svg id="check" xmlns="http://www.w3.org/2000/svg" width="64" height="63.999" viewBox="0 0 64 63.999">
  <path id="kreis" d="M219.621,2787.372a32,32,0,1,1-45.254,0A32,32,0,0,1,219.621,2787.372Z" transform="translate(-164.994 -2778)" fill="#293d4f"/>
  <path id="check-2" data-name="check" d="M-298.293,148.82a2.99,2.99,0,0,1-1.923-.7l-8.68-7.247a3,3,0,0,1-.38-4.227,3,3,0,0,1,4.229-.38l6.471,5.4,10.956-12.039a2.993,2.993,0,0,1,4.239-.2,3,3,0,0,1,.2,4.239l-12.891,14.168A2.994,2.994,0,0,1-298.293,148.82Z" transform="translate(328.975 -106.646)" fill="#fff"/>
</svg>
