<svg id="loeschen" xmlns="http://www.w3.org/2000/svg" width="64" height="63.999" viewBox="0 0 64 63.999">
  <path id="kreis" d="M219.621,2787.372a32,32,0,1,1-45.254,0A32,32,0,0,1,219.621,2787.372Z" transform="translate(-164.994 -2778)" fill="#d00000"/>
  <path id="tonne" d="M-1216.767-3.6a2.822,2.822,0,0,1-2.822-2.822V-23.356h16.932V-6.424a2.821,2.821,0,0,1-2.821,2.822Zm8.465-16.226v12.7a.706.706,0,0,0,.706.706.706.706,0,0,0,.706-.706v-12.7a.706.706,0,0,0-.706-.706A.706.706,0,0,0-1208.3-19.829Zm-7.055,0v12.7a.706.706,0,0,0,.706.706.706.706,0,0,0,.706-.706v-12.7a.706.706,0,0,0-.706-.706A.706.706,0,0,0-1215.356-19.829Zm-4.233-4.938A1.411,1.411,0,0,1-1221-26.178a1.41,1.41,0,0,1,1.411-1.41h2.822a1.411,1.411,0,0,1,1.41-1.411h8.466a1.411,1.411,0,0,1,1.411,1.411h2.821a1.41,1.41,0,0,1,1.411,1.41,1.411,1.411,0,0,1-1.411,1.411Z" transform="translate(1243 48)" fill="#fff"/>
</svg>
