<svg id="bearbeiten" xmlns="http://www.w3.org/2000/svg" width="64" height="63.999" viewBox="0 0 64 63.999">
  <path id="kreis" d="M219.621,2787.372a32,32,0,1,1-45.254,0A32,32,0,0,1,219.621,2787.372Z" transform="translate(-164.994 -2778)" fill="#293d4f"/>
  <path id="stift" d="M24.281,7.725a5.543,5.543,0,0,1-.922.827,2.214,2.214,0,0,1-2.272,0,5.552,5.552,0,0,1-.922-.827L17.7,5.256a5.552,5.552,0,0,1-.827-.922,2.214,2.214,0,0,1,0-2.272A5.552,5.552,0,0,1,17.7,1.14a5.551,5.551,0,0,1,.922-.827,2.215,2.215,0,0,1,2.272,0,5.552,5.552,0,0,1,.922.827L24.281,3.61a5.549,5.549,0,0,1,.827.922,2.214,2.214,0,0,1,0,2.272A5.549,5.549,0,0,1,24.281,7.725ZM4.429,25.422c-2.088,0-3.132,0-3.78-.649S0,23.08,0,20.992v-.321a4.711,4.711,0,0,1,.169-1.765A4.711,4.711,0,0,1,1.3,17.54l9.563-9.563c1.476-1.476,2.215-2.215,3.132-2.215s1.655.738,3.132,2.215l.321.321c1.476,1.476,2.215,2.215,2.215,3.132s-.738,1.655-2.215,3.132L7.882,24.124a4.716,4.716,0,0,1-1.367,1.129,4.713,4.713,0,0,1-1.765.169Z" transform="translate(19.422 18.755)" fill="#fff" fill-rule="evenodd"/>
</svg>
