<svg id="fragezeichen" xmlns="http://www.w3.org/2000/svg" width="64" height="63.999" viewBox="0 0 64 63.999">
  <path id="kreis" d="M219.621,2787.372a32,32,0,1,1-45.254,0A32,32,0,0,1,219.621,2787.372Z" transform="translate(-164.994 -2778)" fill="#949ea7"/>
  <g id="np_ask_2349655_000000" transform="translate(-26.599 11.69)">
    <path id="Path_1247" data-name="Path 1247" d="M51.429,16.267a2.837,2.837,0,0,0,2.828-2.828,4.262,4.262,0,0,1,1.555-3.322,4.127,4.127,0,0,1,3.607-.92,4.343,4.343,0,0,1,.494,8.412,6.118,6.118,0,0,0-4.17,5.869v2.4a2.828,2.828,0,1,0,5.656,0v-2.4a.591.591,0,0,1,.282-.494A10.027,10.027,0,1,0,48.6,13.436a2.84,2.84,0,0,0,2.831,2.831Z" fill="#fff"/>
    <path id="Path_1248" data-name="Path 1248" d="M64.644,45.67c0,4.1-6.144,4.1-6.144,0s6.144-4.093,6.144,0" transform="translate(-2.932 -11.518)" fill="#fff"/>
  </g>
</svg>
