<svg id="scuhe" xmlns="http://www.w3.org/2000/svg" width="64" height="63.999" viewBox="0 0 64 63.999">
  <path id="kreis" d="M219.621,2787.372a32,32,0,1,1-45.254,0A32,32,0,0,1,219.621,2787.372Z" transform="translate(-164.994 -2778)" fill="#293d4f"/>
  <path id="search" d="M25.5,17.74a7.77,7.77,0,0,0-7.753-7.755A7.77,7.77,0,0,0,9.987,17.74a7.77,7.77,0,0,0,7.755,7.753A7.77,7.77,0,0,0,25.5,17.74Zm8.862,14.4a2.248,2.248,0,0,1-2.216,2.216,2.053,2.053,0,0,1-1.557-.658l-5.937-5.92a11.848,11.848,0,0,1-6.905,2.147,11.977,11.977,0,0,1-4.735-.961,11.927,11.927,0,0,1-6.491-6.491,12.146,12.146,0,0,1,0-9.468,11.927,11.927,0,0,1,6.491-6.491,12.146,12.146,0,0,1,9.468,0A11.927,11.927,0,0,1,28.966,13a11.977,11.977,0,0,1,.961,4.735,11.847,11.847,0,0,1-2.147,6.905l5.937,5.937a2.12,2.12,0,0,1,.64,1.557Z" transform="translate(12.444 12.446)" fill="#fff" fill-rule="evenodd"/>
</svg>
