<svg id="X-klein-hellgrau" xmlns="http://www.w3.org/2000/svg" width="64" height="63.999" viewBox="0 0 64 63.999">
  <path id="kreis" d="M219.621,2787.372a32,32,0,1,1-45.254,0A32,32,0,0,1,219.621,2787.372Z" transform="translate(-164.994 -2778)" fill="#949ea7"/>
  <path id="X-klein" d="M-3269.687,1889.138l-4.241-4.241-4.242,4.241a2,2,0,0,1-2.827,0,2,2,0,0,1,0-2.827l4.241-4.242-4.241-4.241a2,2,0,0,1,0-2.829,2,2,0,0,1,2.827,0l4.243,4.242,4.243-4.242a2,2,0,0,1,2.827,0,2,2,0,0,1,0,2.829l-4.242,4.241,4.242,4.242a2,2,0,0,1,0,2.827,2,2,0,0,1-1.414.586A1.994,1.994,0,0,1-3269.687,1889.138Z" transform="translate(3305.583 -1850.413)" fill="#fff"/>
</svg>
